<svg width="40" height="41" viewBox="0 0 40 41" fill="none" xmlns="http://www.w3.org/2000/svg">
<g clip-path="url(#clip0_207_1006)">
<path d="M23.8471 7.46021C23.8471 9.6256 22.0917 11.381 19.9263 11.381C17.761 11.381 16.0056 9.6256 16.0056 7.46021C16.0056 5.29482 17.761 3.53943 19.9263 3.53943C22.0917 3.53943 23.8471 5.29482 23.8471 7.46021Z" stroke="white" stroke-width="1.5"/>
<path d="M31.7699 20.1365L31.7705 20.1366L36.1234 21.0446C36.1235 21.0446 36.1236 21.0447 36.1237 21.0447C37.6309 21.3598 38.6133 22.8583 38.2995 24.373C38.2994 24.3734 38.2994 24.3737 38.2993 24.374L37.2045 29.596L37.2041 29.5978C36.8921 31.1038 35.3928 32.0845 33.8848 31.7709C33.8845 31.7709 33.8843 31.7708 33.8841 31.7708L32.4843 31.4774L31.9952 31.3749L31.7123 31.7868C29.7263 34.6777 25.2948 36.8103 20.0003 36.8103C16.5524 36.8103 13.3382 35.9201 10.9343 34.3444L10.9339 34.3442C9.78642 33.5932 8.90653 32.7256 8.27761 31.7963L7.99553 31.3794L7.50288 31.4825L6.12469 31.7709C4.61542 32.0863 3.11559 31.1044 2.80343 29.5978L2.80312 29.5963L1.70976 24.3734C1.70975 24.3733 1.70974 24.3733 1.70973 24.3732C1.39413 22.8585 2.37646 21.3597 3.88226 21.0446C3.88234 21.0446 3.88242 21.0446 3.8825 21.0446L8.23868 20.1366L8.23924 20.1365C9.402 19.8932 10.5625 20.4281 11.1783 21.3936L11.5453 21.9689L12.1527 21.6577C12.8736 21.2883 13.6353 20.9711 14.4466 20.7127L14.969 20.5463V19.9981V17.3958C14.969 15.8504 16.2306 14.5856 17.7774 14.5856H22.2285C23.7656 14.5856 25.0331 15.8509 25.0318 17.3951V17.3958V19.9844V20.5311L25.5523 20.6984C26.3756 20.963 27.1461 21.2807 27.8595 21.6471L28.4659 21.9586L28.8337 21.3845C29.4486 20.4246 30.6072 19.8929 31.7699 20.1365ZM9.41986 31.0792L8.18227 31.3388L9.00356 32.3004C9.56699 32.96 10.2623 33.5672 11.0886 34.1073C13.4878 35.6874 16.6591 36.5268 19.9986 36.5268C24.6623 36.5268 28.8384 34.8738 31.0117 32.3006L31.8229 31.3402L30.5924 31.0826L29.5264 30.8594L29.5254 30.8592C28.0172 30.5457 27.0362 29.0478 27.3484 27.5361C27.3485 27.5357 27.3486 27.5352 27.3487 27.5348L28.3423 22.7866L28.4575 22.2359L27.9611 21.9712C27.3585 21.6499 26.7131 21.3693 26.0317 21.1265L25.03 20.7697V21.8331V22.7343C25.03 24.2745 23.765 25.541 22.2267 25.541H17.7756C16.2312 25.541 14.9672 24.2752 14.9672 22.7343V21.8777V20.8104L13.963 21.1721C13.2895 21.4147 12.655 21.6993 12.0511 22.0239L11.5575 22.2892L11.672 22.8377L12.6522 27.5343L12.6522 27.5343C12.9676 29.0449 11.9862 30.5437 10.4769 30.8575L10.4755 30.8577L9.41986 31.0792Z" stroke="white" stroke-width="1.5"/>
<path d="M39.25 13.6005C39.25 15.7659 37.4946 17.5212 35.3292 17.5212C33.1638 17.5212 31.4084 15.7659 31.4084 13.6005C31.4084 11.4351 33.1638 9.67969 35.3292 9.67969C37.4946 9.67969 39.25 11.4351 39.25 13.6005Z" stroke="white" stroke-width="1.5"/>
<path d="M3.86842 9.76154L3.86861 9.7615C5.99052 9.3178 8.06575 10.6769 8.51345 12.7957C8.95118 14.9174 7.5951 16.9954 5.47598 17.4391C3.35418 17.8816 1.27657 16.5224 0.834205 14.4016L0.834087 14.401C0.390312 12.2816 1.75057 10.2038 3.86842 9.76154Z" stroke="white" stroke-width="1.5"/>
</g>
<defs>
<clipPath id="clip0_207_1006">
<rect width="40" height="40" fill="white" transform="translate(0 0.174805)"/>
</clipPath>
</defs>
</svg>
