<svg width="18" height="18" viewBox="0 0 18 18" fill="none" xmlns="http://www.w3.org/2000/svg">
<path d="M6.65625 4.97656C7.30729 4.32552 8.08854 4 9 4C9.91146 4 10.6927 4.32552 11.3438 4.97656C11.9948 5.6276 12.3203 6.40885 12.3203 7.32031C12.3203 8.02344 11.9036 8.7526 11.0703 9.50781C10.237 10.237 9.82031 10.901 9.82031 11.5H8.17969C8.17969 10.901 8.3099 10.3932 8.57031 9.97656C8.83073 9.53385 9.11719 9.22135 9.42969 9.03906C9.74219 8.83073 10.0286 8.58333 10.2891 8.29688C10.5495 8.01042 10.6797 7.6849 10.6797 7.32031C10.6797 6.8776 10.5104 6.5 10.1719 6.1875C9.83333 5.84896 9.44271 5.67969 9 5.67969C8.55729 5.67969 8.16667 5.84896 7.82812 6.1875C7.48958 6.5 7.32031 6.8776 7.32031 7.32031H5.67969C5.67969 6.40885 6.00521 5.6276 6.65625 4.97656ZM4.27344 13.7266C5.60156 15.0286 7.17708 15.6797 9 15.6797C10.8229 15.6797 12.3854 15.0286 13.6875 13.7266C15.0156 12.3984 15.6797 10.8229 15.6797 9C15.6797 7.17708 15.0156 5.61458 13.6875 4.3125C12.3854 2.98438 10.8229 2.32031 9 2.32031C7.17708 2.32031 5.60156 2.98438 4.27344 4.3125C2.97135 5.61458 2.32031 7.17708 2.32031 9C2.32031 10.8229 2.97135 12.3984 4.27344 13.7266ZM3.10156 3.14062C4.74219 1.5 6.70833 0.679688 9 0.679688C11.2917 0.679688 13.2448 1.5 14.8594 3.14062C16.5 4.75521 17.3203 6.70833 17.3203 9C17.3203 11.2917 16.5 13.2578 14.8594 14.8984C13.2448 16.513 11.2917 17.3203 9 17.3203C6.70833 17.3203 4.74219 16.513 3.10156 14.8984C1.48698 13.2578 0.679688 11.2917 0.679688 9C0.679688 6.70833 1.48698 4.75521 3.10156 3.14062ZM8.17969 14V12.3203H9.82031V14H8.17969Z" fill="#009CC4"/>
</svg>
