<svg width="70" height="50" viewBox="0 0 70 50" fill="none" xmlns="http://www.w3.org/2000/svg">
<g clip-path="url(#clip0_2268_56)">
<path d="M4.24081 49.0704C3.62348 49.0704 3.03299 48.9634 2.52302 48.7227C2.01305 48.5088 1.55676 48.2146 1.181 47.8401C0.80523 47.4657 0.509984 47.0378 0.322101 46.5296C0.134217 46.0482 0.0268555 45.5133 0.0268555 44.9517C0.0268555 44.3901 0.134217 43.8552 0.322101 43.3738C0.509984 42.8924 0.80523 42.4377 1.181 42.0633C1.55676 41.6888 2.01305 41.3946 2.52302 41.1807C3.03299 40.9667 3.62348 40.8598 4.24081 40.833H5.31443V41.8226H4.29449C3.8382 41.8226 3.4356 41.9028 3.05983 42.0633C2.68406 42.2237 2.36198 42.4377 2.06673 42.7319C1.79833 42.9993 1.55676 43.347 1.42256 43.7214C1.26152 44.0959 1.181 44.497 1.181 44.9517C1.181 45.3796 1.26152 45.8075 1.42256 46.182C1.5836 46.5564 1.79833 46.9041 2.06673 47.1715C2.33514 47.439 2.68406 47.6797 3.05983 47.8134C3.4356 47.9739 3.8382 48.0541 4.29449 48.0541H5.31443V49.0437H4.24081V49.0704Z" fill="url(#paint0_linear_2268_56)"/>
<path d="M6.92487 49.0703L9.74312 41.6085C9.87732 41.2876 10.0384 41.0469 10.2531 40.9132C10.4678 40.7527 10.7362 40.6992 11.0315 40.6992C11.3267 40.6992 11.5683 40.7795 11.8098 40.9132C12.0246 41.0469 12.2124 41.2876 12.3198 41.6085L15.1381 49.0703H13.9034L13.1787 47.0912H8.85738L8.13269 49.0703H6.92487ZM9.20631 46.1017H12.8298L11.3535 42.0097C11.3267 41.9027 11.273 41.8225 11.2193 41.769C11.1657 41.7155 11.112 41.6888 11.0315 41.6888C10.9509 41.6888 10.8973 41.7155 10.8436 41.769C10.7899 41.8225 10.7631 41.9027 10.7362 42.0097L9.20631 46.1017Z" fill="url(#paint1_linear_2268_56)"/>
<path d="M17.2048 49.0704V48.0808H20.7745C21.0429 48.0808 21.2845 48.0273 21.4724 47.8936C21.6603 47.7599 21.8213 47.5994 21.9287 47.3855C22.036 47.1715 22.0897 46.9575 22.0897 46.7436C22.0897 46.5029 22.036 46.2889 21.9287 46.1017C21.8213 45.9145 21.6603 45.754 21.4724 45.6203C21.2845 45.4866 21.0429 45.4331 20.7745 45.4331H19.2178C18.7615 45.4331 18.3321 45.3261 17.9831 45.1389C17.6342 44.9517 17.339 44.6842 17.1511 44.3365C16.9632 43.9889 16.8558 43.6144 16.8558 43.1865C16.8558 42.7586 16.9632 42.3574 17.1511 42.0098C17.339 41.6621 17.6074 41.3679 17.9563 41.1807C18.3052 40.9667 18.7078 40.8865 19.1641 40.8865H22.6802V41.876H19.2983C19.0299 41.876 18.8152 41.9295 18.6005 42.0632C18.4126 42.197 18.2515 42.3307 18.1442 42.5446C18.0368 42.7319 17.9831 42.9458 17.9831 43.1598C17.9831 43.3737 18.0368 43.561 18.1173 43.7749C18.2247 43.9621 18.3589 44.1226 18.5468 44.2296C18.7347 44.3365 18.9494 44.4168 19.2178 44.4168H20.8014C21.2845 44.4168 21.714 44.5238 22.0897 44.711C22.4386 44.8982 22.7071 45.1656 22.8949 45.5133C23.0828 45.861 23.1902 46.2354 23.1902 46.6633C23.1902 47.1448 23.0828 47.5727 22.8949 47.9471C22.7071 48.3215 22.4386 48.6157 22.0629 48.8297C21.6871 49.0436 21.3113 49.1506 20.8551 49.1506H17.2048V49.0704Z" fill="url(#paint2_linear_2268_56)"/>
<path d="M25.8206 49.0704V40.833H26.9479V44.3633H31.296V40.833H32.4233V49.0704H31.296V45.3796H26.9479V49.0704H25.8206Z" fill="url(#paint3_linear_2268_56)"/>
<path d="M35.3221 49.0704V42.9726C35.3221 42.5447 35.4294 42.197 35.6173 41.876C35.8052 41.5551 36.0736 41.3144 36.3957 41.1272C36.7178 40.94 37.0936 40.8597 37.4962 40.8597H40.4486V41.8493H37.6304C37.2814 41.8493 37.013 41.9563 36.7983 42.1702C36.5836 42.3842 36.4762 42.6516 36.4762 42.9993V44.6575H39.9923V45.6471H36.4762V49.0704H35.3221Z" fill="url(#paint4_linear_2268_56)"/>
<path d="M46.1657 49.2309C45.5215 49.2309 44.9578 49.0971 44.4747 48.8297C43.9916 48.5622 43.589 48.1878 43.3206 47.6797C43.0522 47.1715 42.8911 46.5831 42.8911 45.9145V40.8597H44.0184V46.0215C44.0184 46.4227 44.0989 46.7971 44.2868 47.118C44.4479 47.4657 44.7163 47.7332 45.0384 47.9204C45.3604 48.1076 45.7362 48.2146 46.1925 48.2146C46.6219 48.2146 47.0246 48.1076 47.3198 47.9204C47.6419 47.7332 47.8834 47.439 48.0713 47.118C48.2324 46.7703 48.3397 46.4227 48.3397 46.0215V40.8597H49.467V45.9145C49.467 46.6099 49.3328 47.1983 49.0376 47.6797C48.7692 48.1878 48.3666 48.5622 47.8834 48.8297C47.3735 49.0971 46.8098 49.2309 46.1657 49.2309Z" fill="url(#paint5_linear_2268_56)"/>
<path d="M57.9218 49.2308C57.4924 49.2308 57.0898 49.1238 56.7677 48.9366C56.4456 48.7494 56.1772 48.4552 55.9893 48.1075C55.8014 47.7599 55.694 47.3854 55.694 46.9308V42.8121C55.694 42.5981 55.6404 42.4109 55.533 42.2237C55.4256 42.0632 55.2914 41.9027 55.1304 41.8225C54.9694 41.7155 54.7815 41.662 54.5667 41.662C54.352 41.662 54.1641 41.7155 54.0031 41.8225C53.8421 41.9295 53.7079 42.0632 53.6005 42.2237C53.4931 42.3842 53.4663 42.5981 53.4663 42.8121V49.0704H52.339V42.9725C52.339 42.5446 52.4464 42.1434 52.6342 41.7958C52.8221 41.4481 53.0905 41.1806 53.4126 40.9667C53.7615 40.7795 54.1373 40.6725 54.5936 40.6725C55.0499 40.6725 55.4256 40.7795 55.7746 40.9667C56.1235 41.1539 56.3651 41.4481 56.5529 41.7958C56.7408 42.1434 56.8482 42.5179 56.8482 42.9725V47.0912C56.8482 47.3052 56.9019 47.4924 57.0092 47.6796C57.1166 47.8401 57.2508 48.0006 57.4118 48.0808C57.5729 48.1878 57.7608 48.2413 57.9486 48.2413C58.1365 48.2413 58.3244 48.1878 58.4855 48.0808C58.6465 47.9738 58.7807 47.8401 58.8881 47.6796C58.9954 47.5192 59.0491 47.3052 59.0491 47.0912V40.833H60.1764V46.9308C60.1764 47.3587 60.069 47.7599 59.8812 48.1075C59.6933 48.4552 59.4249 48.7227 59.1028 48.9366C58.7807 49.1506 58.3513 49.2308 57.9218 49.2308Z" fill="url(#paint6_linear_2268_56)"/>
<path d="M63.0483 49.0704V40.833H65.7056C66.5913 40.833 67.3428 41.0202 67.987 41.3679C68.6312 41.7156 69.1143 42.197 69.4901 42.8389C69.839 43.454 70.0269 44.1761 70.0269 44.9785C70.0269 45.7808 69.839 46.4762 69.4901 47.118C69.1412 47.7332 68.6312 48.2146 67.987 48.589C67.3428 48.9634 66.5913 49.1239 65.7056 49.1239H63.0483V49.0704ZM64.1756 48.0809H65.7056C66.3229 48.0809 66.8597 47.9471 67.3428 47.7064C67.826 47.4657 68.2017 47.0913 68.4701 46.6366C68.7385 46.182 68.8727 45.6203 68.8727 44.9785C68.8727 44.3366 68.7385 43.7749 68.4701 43.3203C68.2017 42.8656 67.826 42.4912 67.3428 42.2505C66.8597 42.0098 66.3229 41.8761 65.7056 41.8761H64.1756V48.0809Z" fill="url(#paint7_linear_2268_56)"/>
<path d="M48.0713 31.2049C45.2531 33.2909 41.227 33.9596 37.6035 33.9596C28.7998 33.9596 21.6066 26.3106 21.5798 17.672C21.6334 9.08692 28.8267 2.05304 37.6035 1.99955C41.3344 1.99955 44.8236 3.17632 47.6955 5.39613C48.5008 6.0915 48.6618 7.29501 48.0445 8.15085C47.3735 8.97994 46.0851 9.16715 45.3067 8.55202C43.1863 6.84035 40.5291 5.93103 37.6035 5.93103C34.4363 5.93103 31.3765 7.13454 29.0146 9.35436L28.9877 9.38111C26.7063 11.7079 25.4985 14.5696 25.4985 17.672C25.4985 20.7744 26.7868 23.8233 29.0146 25.9896C31.3765 28.2094 34.4363 29.4129 37.6035 29.4129C40.4486 29.4129 42.9985 28.5571 45.1457 26.8989L45.1994 26.8722C43.2669 28.3699 40.207 28.7711 37.6304 28.7711C34.7584 28.7711 32.0207 27.0594 29.9003 25.0803C27.9141 23.1547 26.7868 20.4267 26.7868 17.6452C26.7868 14.8638 27.8604 12.2963 29.9003 10.2102C32.0475 8.23108 34.7853 7.13455 37.6304 7.13455C40.2607 7.13455 42.6495 7.93689 44.5552 9.48809C45.8972 10.5311 47.9639 10.2637 49.0376 8.8997L49.0644 8.87296C50.0843 7.48223 49.8159 5.52986 48.5008 4.43332H48.4739C45.3873 2.02629 41.6296 0.769287 37.6035 0.769287C28.1288 0.822777 20.3719 8.39155 20.3451 17.672C20.3988 26.9792 28.1288 34.5747 37.6304 34.5747C41.4954 34.5747 45.1189 33.3979 48.1518 31.1781L48.0713 31.2049Z" fill="#009CC4"/>
</g>
<defs>
<linearGradient id="paint0_linear_2268_56" x1="2.64547" y1="40.8458" x2="2.64547" y2="49.0828" gradientUnits="userSpaceOnUse">
<stop stop-color="#009CC4"/>
<stop offset="0.2342" stop-color="#0093BD"/>
<stop offset="0.622" stop-color="#0079AC"/>
<stop offset="0.9944" stop-color="#005B97"/>
</linearGradient>
<linearGradient id="paint1_linear_2268_56" x1="11.0244" y1="40.7041" x2="11.0244" y2="49.0828" gradientUnits="userSpaceOnUse">
<stop stop-color="#009CC4"/>
<stop offset="0.2342" stop-color="#0093BD"/>
<stop offset="0.622" stop-color="#0079AC"/>
<stop offset="0.9944" stop-color="#005B97"/>
</linearGradient>
<linearGradient id="paint2_linear_2268_56" x1="20.0529" y1="40.8457" x2="20.0529" y2="49.0828" gradientUnits="userSpaceOnUse">
<stop stop-color="#009CC4"/>
<stop offset="0.2342" stop-color="#0093BD"/>
<stop offset="0.622" stop-color="#0079AC"/>
<stop offset="0.9944" stop-color="#005B97"/>
</linearGradient>
<linearGradient id="paint3_linear_2268_56" x1="29.1289" y1="40.8458" x2="29.1289" y2="49.0828" gradientUnits="userSpaceOnUse">
<stop stop-color="#009CC4"/>
<stop offset="0.2342" stop-color="#0093BD"/>
<stop offset="0.622" stop-color="#0079AC"/>
<stop offset="0.9944" stop-color="#005B97"/>
</linearGradient>
<linearGradient id="paint4_linear_2268_56" x1="37.8797" y1="40.8458" x2="37.8797" y2="49.0828" gradientUnits="userSpaceOnUse">
<stop stop-color="#009CC4"/>
<stop offset="0.2342" stop-color="#0093BD"/>
<stop offset="0.622" stop-color="#0079AC"/>
<stop offset="0.9944" stop-color="#005B97"/>
</linearGradient>
<linearGradient id="paint5_linear_2268_56" x1="46.1582" y1="40.8458" x2="46.1582" y2="49.2241" gradientUnits="userSpaceOnUse">
<stop stop-color="#009CC4"/>
<stop offset="0.2342" stop-color="#0093BD"/>
<stop offset="0.622" stop-color="#0079AC"/>
<stop offset="0.9944" stop-color="#005B97"/>
</linearGradient>
<linearGradient id="paint6_linear_2268_56" x1="56.2202" y1="40.7042" x2="56.2202" y2="49.2241" gradientUnits="userSpaceOnUse">
<stop stop-color="#009CC4"/>
<stop offset="0.2342" stop-color="#0093BD"/>
<stop offset="0.622" stop-color="#0079AC"/>
<stop offset="0.9944" stop-color="#005B97"/>
</linearGradient>
<linearGradient id="paint7_linear_2268_56" x1="66.5182" y1="40.8458" x2="66.5182" y2="49.0829" gradientUnits="userSpaceOnUse">
<stop stop-color="#009CC4"/>
<stop offset="0.2342" stop-color="#0093BD"/>
<stop offset="0.622" stop-color="#0079AC"/>
<stop offset="0.9944" stop-color="#005B97"/>
</linearGradient>
<clipPath id="clip0_2268_56">
<rect width="70" height="48.4615" fill="white" transform="translate(0 0.769287)"/>
</clipPath>
</defs>
</svg>
