<svg width="75" height="47" viewBox="0 0 75 47" fill="none" xmlns="http://www.w3.org/2000/svg">
<g clip-path="url(#clip0_2180_217)">
<path d="M4.5437 46.6778C3.88227 46.6778 3.24961 46.5748 2.70321 46.3431C2.15681 46.1371 1.66793 45.8538 1.26533 45.4933C0.86272 45.1329 0.546386 44.7209 0.345082 44.2316C0.143778 43.7682 0.0287476 43.2532 0.0287476 42.7124C0.0287476 42.1717 0.143778 41.6567 0.345082 41.1932C0.546386 40.7298 0.86272 40.292 1.26533 39.9315C1.66793 39.571 2.15681 39.2878 2.70321 39.0818C3.24961 38.8758 3.88227 38.7728 4.5437 38.7471H5.69401V39.6998H4.60122C4.11234 39.6998 3.68097 39.777 3.27836 39.9315C2.87576 40.086 2.53066 40.292 2.21433 40.5753C1.92675 40.8327 1.66793 41.1675 1.52415 41.528C1.3516 41.8885 1.26533 42.2747 1.26533 42.7124C1.26533 43.1244 1.3516 43.5364 1.52415 43.8969C1.69669 44.2574 1.92675 44.5921 2.21433 44.8496C2.50191 45.1071 2.87576 45.3389 3.27836 45.4676C3.68097 45.6221 4.11234 45.6993 4.60122 45.6993H5.69401V46.6521H4.5437V46.6778Z" fill="white"/>
<path d="M7.41949 46.6778L10.4391 39.4938C10.5828 39.1848 10.7554 38.953 10.9854 38.8243C11.2155 38.6698 11.5031 38.6183 11.8194 38.6183C12.1358 38.6183 12.3946 38.6955 12.6534 38.8243C12.8835 38.953 13.0848 39.1848 13.1998 39.4938L16.2193 46.6778H14.8965L14.12 44.7723H9.49005L8.71359 46.6778H7.41949ZM9.8639 43.8196H13.7462L12.1645 39.88C12.1358 39.777 12.0782 39.6998 12.0207 39.6483C11.9632 39.5968 11.9057 39.571 11.8194 39.571C11.7331 39.571 11.6756 39.5968 11.6181 39.6483C11.5606 39.6998 11.5318 39.777 11.5031 39.88L9.8639 43.8196Z" fill="white"/>
<path d="M18.4337 46.6778V45.7251H22.2584C22.546 45.7251 22.8048 45.6736 23.0061 45.5449C23.2074 45.4161 23.38 45.2616 23.495 45.0556C23.6101 44.8496 23.6676 44.6436 23.6676 44.4376C23.6676 44.2059 23.6101 43.9999 23.495 43.8197C23.38 43.6394 23.2074 43.4849 23.0061 43.3562C22.8048 43.2274 22.546 43.1759 22.2584 43.1759H20.5905C20.1016 43.1759 19.6415 43.0729 19.2676 42.8927C18.8938 42.7124 18.5775 42.455 18.3761 42.1202C18.1748 41.7855 18.0598 41.425 18.0598 41.013C18.0598 40.601 18.1748 40.2148 18.3761 39.88C18.5775 39.5453 18.865 39.2621 19.2389 39.0818C19.6127 38.8758 20.0441 38.7986 20.533 38.7986H24.3002V39.7513H20.6768C20.3892 39.7513 20.1591 39.8028 19.9291 39.9315C19.7278 40.0603 19.5552 40.189 19.4402 40.395C19.3252 40.5753 19.2676 40.7813 19.2676 40.9873C19.2676 41.1933 19.3252 41.3735 19.4114 41.5795C19.5265 41.7597 19.6702 41.9142 19.8716 42.0172C20.0729 42.1202 20.3029 42.1975 20.5905 42.1975H22.2872C22.8048 42.1975 23.265 42.3005 23.6676 42.4807C24.0414 42.661 24.329 42.9184 24.5303 43.2532C24.7316 43.5879 24.8466 43.9484 24.8466 44.3604C24.8466 44.8239 24.7316 45.2359 24.5303 45.5964C24.329 45.9568 24.0414 46.2401 23.6388 46.4461C23.2362 46.6521 22.8336 46.7551 22.3447 46.7551H18.4337V46.6778Z" fill="white"/>
<path d="M27.6649 46.6778V38.7471H28.8727V42.146H33.5314V38.7471H34.7392V46.6778H33.5314V43.1244H28.8727V46.6778H27.6649Z" fill="white"/>
<path d="M37.8451 46.6778V40.807C37.8451 40.395 37.9601 40.0603 38.1614 39.7513C38.3627 39.4423 38.6503 39.2106 38.9954 39.0303C39.3405 38.8501 39.7431 38.7728 40.1745 38.7728H43.3378V39.7255H40.3182C39.9444 39.7255 39.6568 39.8285 39.4268 40.0345C39.1967 40.2405 39.0817 40.498 39.0817 40.8328V42.4292H42.8489V43.3819H39.0817V46.6778H37.8451V46.6778Z" fill="white"/>
<path d="M49.4632 46.8323C48.773 46.8323 48.1691 46.7036 47.6514 46.4461C47.1338 46.1886 46.7024 45.8281 46.4148 45.3389C46.1273 44.8496 45.9547 44.2831 45.9547 43.6394V38.7728H47.1625V43.7424C47.1625 44.1286 47.2488 44.4891 47.4501 44.7981C47.6227 45.1329 47.9102 45.3904 48.2553 45.5706C48.6004 45.7508 49.003 45.8538 49.4919 45.8538C49.952 45.8538 50.3834 45.7508 50.6997 45.5706C51.0448 45.3904 51.3037 45.1071 51.505 44.7981C51.6775 44.4634 51.7925 44.1286 51.7925 43.7424V38.7728H53.0004V43.6394C53.0004 44.3089 52.8566 44.8754 52.5402 45.3389C52.2527 45.8281 51.8213 46.1886 51.3036 46.4461C50.7573 46.7036 50.1533 46.8323 49.4632 46.8323Z" fill="white"/>
<path d="M62.059 46.8323C61.5989 46.8323 61.1676 46.7293 60.8225 46.549C60.4774 46.3688 60.1898 46.0855 59.9885 45.7508C59.7872 45.4161 59.6722 45.0556 59.6722 44.6178V40.6525C59.6722 40.4465 59.6146 40.2662 59.4996 40.086C59.3846 39.9315 59.2408 39.777 59.0682 39.6997C58.8957 39.5967 58.6944 39.5452 58.4643 39.5452C58.2343 39.5452 58.033 39.5967 57.8604 39.6997C57.6879 39.8027 57.5441 39.9315 57.4291 40.086C57.314 40.2405 57.2853 40.4465 57.2853 40.6525V46.6778H56.0775V40.807C56.0775 40.395 56.1925 40.0087 56.3938 39.674C56.5951 39.3393 56.8827 39.0818 57.2278 38.8758C57.6016 38.6955 58.0042 38.5925 58.4931 38.5925C58.982 38.5925 59.3846 38.6955 59.7584 38.8758C60.1323 39.056 60.3911 39.3393 60.5924 39.674C60.7937 40.0087 60.9087 40.3692 60.9087 40.807V44.7723C60.9087 44.9783 60.9662 45.1586 61.0813 45.3388C61.1963 45.4933 61.3401 45.6478 61.5126 45.725C61.6852 45.828 61.8865 45.8795 62.0878 45.8795C62.2891 45.8795 62.4904 45.828 62.6629 45.725C62.8355 45.622 62.9793 45.4933 63.0943 45.3388C63.2093 45.1843 63.2669 44.9783 63.2669 44.7723V38.747H64.4747V44.6178C64.4747 45.0298 64.3596 45.4161 64.1583 45.7508C63.957 46.0855 63.6695 46.343 63.3244 46.549C62.9793 46.755 62.5192 46.8323 62.059 46.8323Z" fill="white"/>
<path d="M67.5518 46.6778V38.7471H70.3988C71.3478 38.7471 72.153 38.9273 72.8432 39.2621C73.5334 39.5968 74.051 40.0603 74.4536 40.6783C74.8275 41.2705 75.0288 41.9657 75.0288 42.7382C75.0288 43.5107 74.8275 44.1801 74.4536 44.7981C74.0798 45.3904 73.5334 45.8538 72.8432 46.2143C72.153 46.5748 71.3478 46.7293 70.3988 46.7293H67.5518V46.6778ZM68.7596 45.7251H70.3988C71.0602 45.7251 71.6354 45.5963 72.153 45.3646C72.6706 45.1329 73.0732 44.7724 73.3608 44.3346C73.6484 43.8969 73.7922 43.3562 73.7922 42.7382C73.7922 42.1202 73.6484 41.5795 73.3608 41.1417C73.0732 40.704 72.6706 40.3435 72.153 40.1118C71.6354 39.88 71.0602 39.7513 70.3988 39.7513H68.7596V45.7251Z" fill="white"/>
<path d="M51.505 29.4773C48.4855 31.4857 44.1718 32.1295 40.2895 32.1295C30.857 32.1295 23.1499 24.7652 23.1212 16.4483C23.1787 8.18278 30.8858 1.41076 40.2895 1.35926C44.2868 1.35926 48.0253 2.49223 51.1024 4.6294C51.9651 5.29888 52.1377 6.45759 51.4763 7.28156C50.7573 8.07979 49.3769 8.26003 48.543 7.6678C46.2711 6.01986 43.4241 5.14439 40.2895 5.14439C36.8961 5.14439 33.6177 6.3031 31.0871 8.44028L31.0583 8.46602C28.6139 10.7062 27.3198 13.4614 27.3198 16.4483C27.3198 19.4352 28.7002 22.3706 31.0871 24.4562C33.6177 26.5934 36.8961 27.7521 40.2895 27.7521C43.3378 27.7521 46.0698 26.9281 48.3704 25.3317L48.4279 25.306C46.3574 26.7479 43.079 27.1341 40.3183 27.1341C37.2412 27.1341 34.3079 25.4862 32.0361 23.5808C29.908 21.7268 28.7002 19.1004 28.7002 16.4225C28.7002 13.7446 29.8505 11.2727 32.0361 9.26425C34.3367 7.35881 37.27 6.3031 40.3183 6.3031C43.1365 6.3031 45.696 7.07557 47.7378 8.56902C49.1756 9.57324 51.39 9.31575 52.5403 8.00254L52.569 7.97679C53.6618 6.63784 53.3743 4.75815 51.9651 3.70244H51.9364C48.6292 1.38501 44.6032 0.174805 40.2895 0.174805C30.1381 0.226303 21.8271 7.51331 21.7983 16.4483C21.8559 25.409 30.1381 32.7217 40.3183 32.7217C44.4594 32.7217 48.3417 31.5887 51.5913 29.4516L51.505 29.4773Z" fill="white"/>
</g>
<defs>
<clipPath id="clip0_2180_217">
<rect width="75" height="46.6574" fill="white" transform="translate(0 0.174805)"/>
</clipPath>
</defs>
</svg>
