<svg width="40" height="41" viewBox="0 0 40 41" fill="none" xmlns="http://www.w3.org/2000/svg">
<g clip-path="url(#clip0_207_995)">
<path d="M20.5222 22.0051C20.4482 21.9891 20.3723 21.9862 20.2973 21.9974C19.5461 21.9099 18.9794 21.2743 18.9781 20.5183C18.9781 20.1559 18.6843 19.8621 18.322 19.8621C17.9596 19.8621 17.6658 20.1559 17.6658 20.5183C17.6678 21.7808 18.5123 22.8868 19.7297 23.2209V23.877C19.7297 24.2393 20.0234 24.5331 20.3858 24.5331C20.7481 24.5331 21.0419 24.2393 21.0419 23.877V23.2606C22.447 22.9665 23.402 21.6578 23.2543 20.2299C23.1063 18.802 21.9034 17.717 20.4678 17.7166C19.6451 17.7166 18.9781 17.0496 18.9781 16.2269C18.9781 15.4042 19.6451 14.7372 20.4678 14.7372C21.2905 14.7372 21.9575 15.4042 21.9575 16.2269C21.9575 16.5893 22.2513 16.883 22.6136 16.883C22.9759 16.883 23.2697 16.5893 23.2697 16.2269C23.2678 14.9012 22.3391 13.7578 21.0419 13.4842V12.8871C21.0419 12.5247 20.7481 12.231 20.3858 12.231C20.0234 12.231 19.7297 12.5247 19.7297 12.8871V13.5243C18.3758 13.894 17.5044 15.2085 17.6908 16.5995C17.8773 17.9906 19.0642 19.0289 20.4678 19.0285C21.2796 19.0285 21.9418 19.6786 21.9565 20.4901C21.9716 21.3016 21.3334 21.9756 20.5222 22.0051V22.0051Z" fill="white"/>
<path d="M10.9534 18.423C10.9534 23.6777 15.213 27.9373 20.4677 27.9373C25.7224 27.9373 29.982 23.6777 29.982 18.423C29.982 13.1683 25.7224 8.90869 20.4677 8.90869C15.2156 8.91446 10.9595 13.1709 10.9534 18.423ZM20.4677 10.2209C24.9977 10.2209 28.6698 13.893 28.6698 18.423C28.6698 22.953 24.9977 26.6251 20.4677 26.6251C15.9377 26.6251 12.2656 22.953 12.2656 18.423C12.2707 13.8952 15.9399 10.226 20.4677 10.2209Z" fill="white"/>
<path d="M33.2165 29.5548L28.0768 31.9832C27.3672 30.6633 26.0059 29.8233 24.5079 29.781L19.7632 29.6506C19.012 29.6291 18.2748 29.4388 17.6068 29.0938L17.124 28.8436C14.6521 27.5551 11.7056 27.5583 9.23624 28.8519L9.26635 27.7582C9.27628 27.3958 8.99084 27.0941 8.6285 27.0841L3.42571 26.9409C3.06337 26.931 2.7619 27.2164 2.75197 27.5788L2.43769 38.9961C2.42776 39.3584 2.71321 39.6602 3.07554 39.6701L8.27834 39.8133H8.29628C8.65189 39.8133 8.94278 39.5305 8.95239 39.1752L8.96745 38.6289L10.3191 37.9052C10.8496 37.6198 11.4698 37.5519 12.0494 37.7159L20.1208 39.9812C20.1349 39.9854 20.149 39.9886 20.1634 39.9918C20.7468 40.1138 21.3414 40.175 21.9373 40.1747C23.1995 40.1754 24.447 39.9034 25.5943 39.3767C25.6225 39.3639 25.6497 39.3488 25.6756 39.3318L37.3784 31.7622C37.6699 31.5735 37.7641 31.1906 37.5934 30.8882C36.7245 29.3466 34.7975 28.7593 33.2165 29.5548V29.5548ZM3.76754 38.3765L4.04562 28.2708L7.9365 28.3778L7.65842 38.4838L3.76754 38.3765ZM25.0032 38.2048C23.5779 38.8481 21.986 39.0256 20.454 38.7126L12.4044 36.453C11.4984 36.197 10.5286 36.3031 9.69981 36.7487L9.0091 37.1187L9.19395 30.3996C11.3827 28.9439 14.1898 28.7943 16.5208 30.0088L17.0036 30.259C17.8474 30.6947 18.7781 30.935 19.7274 30.9625L24.4723 31.0929C25.8051 31.1313 26.9369 32.0803 27.2073 33.3861L20.1397 33.191C19.7773 33.1811 19.4759 33.4668 19.4656 33.8289C19.4557 34.1912 19.7415 34.493 20.1035 34.5029L27.9032 34.7176H27.9214C28.2767 34.7172 28.5673 34.4343 28.5769 34.0794C28.5849 33.7943 28.5638 33.5088 28.5135 33.2282L33.7851 30.7373C33.7903 30.7351 33.7954 30.7325 33.8005 30.7299C34.5483 30.3516 35.4523 30.4781 36.0674 31.0474L25.0032 38.2048Z" fill="white"/>
<path d="M21.1239 7.06402V0.83092C21.1239 0.468583 20.8301 0.174805 20.4678 0.174805C20.1054 0.174805 19.8116 0.468583 19.8116 0.83092V7.06402C19.8116 7.42635 20.1054 7.72013 20.4678 7.72013C20.8301 7.72013 21.1239 7.42635 21.1239 7.06402Z" fill="white"/>
<path d="M26.0447 7.06396V4.11144C26.0447 3.7491 25.7509 3.45532 25.3885 3.45532C25.0262 3.45532 24.7324 3.7491 24.7324 4.11144V7.06396C24.7324 7.4263 25.0262 7.72007 25.3885 7.72007C25.7509 7.72007 26.0447 7.4263 26.0447 7.06396Z" fill="white"/>
<path d="M16.2029 7.06396V4.11144C16.2029 3.7491 15.9091 3.45532 15.5468 3.45532C15.1845 3.45532 14.8907 3.7491 14.8907 4.11144V7.06396C14.8907 7.4263 15.1845 7.72007 15.5468 7.72007C15.9091 7.72007 16.2029 7.4263 16.2029 7.06396Z" fill="white"/>
</g>
<defs>
<clipPath id="clip0_207_995">
<rect width="40" height="40" fill="white" transform="translate(0 0.174805)"/>
</clipPath>
</defs>
</svg>
