<svg width="40" height="39" viewBox="0 0 40 39" fill="none" xmlns="http://www.w3.org/2000/svg">
<g clip-path="url(#clip0_207_1018)">
<path d="M16.4686 27.3565H13.2817C12.8503 27.3565 12.5004 27.018 12.5004 26.6006C12.5004 26.1832 12.8502 25.8447 13.2817 25.8447H16.4686C16.9 25.8447 17.2498 26.1832 17.2498 26.6006C17.2498 27.018 16.9 27.3565 16.4686 27.3565Z" fill="white"/>
<path d="M26.7184 27.3565H23.5315C23.1001 27.3565 22.7502 27.018 22.7502 26.6006C22.7502 26.1832 23.1 25.8447 23.5315 25.8447H26.7184C27.1498 25.8447 27.4996 26.1832 27.4996 26.6006C27.4996 27.018 27.1498 27.3565 26.7184 27.3565Z" fill="white"/>
<path d="M19.9858 27.3564C19.6598 27.3564 19.3596 27.1526 19.2503 26.8551C19.1426 26.5617 19.2344 26.2257 19.4805 26.0244C19.7373 25.8141 20.1119 25.7889 20.3977 25.959C20.6712 26.1219 20.8141 26.4434 20.7515 26.7479C20.6795 27.0972 20.354 27.3564 19.9858 27.3564Z" fill="white"/>
<path d="M24.5344 30.3347H15.4655C15.034 30.3347 14.6842 29.9962 14.6842 29.5788C14.6842 29.1614 15.034 28.8229 15.4655 28.8229H24.5344C24.9658 28.8229 25.3157 29.1614 25.3157 29.5788C25.3157 29.9962 24.9659 30.3347 24.5344 30.3347Z" fill="white"/>
<path d="M23.322 18.0456C24.3717 17.1521 25.0353 15.8433 25.0353 14.3873C25.0353 11.7009 22.7765 9.51538 20.0001 9.51538C17.2237 9.51538 14.965 11.7009 14.965 14.3873C14.965 15.8433 15.6285 17.1521 16.6782 18.0456C14.9045 18.7011 13.6414 20.3647 13.6414 22.3085V23.6044C13.6414 24.0218 13.9911 24.3603 14.4226 24.3603H25.5777C26.0091 24.3603 26.3589 24.0218 26.3589 23.6044V22.3085C26.3589 20.3647 25.0957 18.7011 23.322 18.0456ZM20.0001 11.0272C21.915 11.0272 23.4728 12.5345 23.4728 14.3873C23.4728 16.2401 21.915 17.7474 20.0001 17.7474C18.0853 17.7474 16.5274 16.2401 16.5274 14.3873C16.5274 12.5345 18.0852 11.0272 20.0001 11.0272ZM24.7964 22.8485H15.2038V22.3084C15.2038 20.6271 16.6175 19.2591 18.3552 19.2591H21.6449C23.3826 19.2591 24.7964 20.6271 24.7964 22.3084V22.8485H24.7964Z" fill="white"/>
<path d="M9.43015 38.0691C8.82968 38.0691 8.23639 37.8863 7.72882 37.5294C6.8971 36.9448 6.45358 36.004 6.54249 35.013L7.42803 25.138L0.713499 17.6529C0.0395923 16.9017 -0.173064 15.8884 0.144671 14.9424C0.462249 13.9964 1.24983 13.2977 2.25123 13.0732L12.2301 10.8367L17.5118 2.34404C18.0419 1.49177 18.9721 0.98291 20 0.98291C21.028 0.98291 21.9581 1.4917 22.4882 2.34404L27.7698 10.8367L37.7488 13.0732C38.7502 13.2977 39.5376 13.9964 39.8553 14.9424C40.1731 15.8885 39.9605 16.9017 39.2866 17.6529L32.572 25.138L33.4575 35.013C33.5464 36.004 33.1029 36.9448 32.2712 37.5294C31.4395 38.1141 30.3778 38.2314 29.4315 37.8434L20 33.9768L10.5685 37.8434C10.1998 37.9946 9.81343 38.0691 9.43015 38.0691ZM20 2.49476C19.5251 2.49476 19.0954 2.72984 18.8505 3.12358L13.3982 11.8906C13.2891 12.066 13.1112 12.1911 12.9051 12.2372L2.60381 14.546C2.14116 14.6497 1.77733 14.9726 1.63061 15.4096C1.48389 15.8467 1.58209 16.3149 1.89342 16.662L8.82499 24.389C8.96366 24.5436 9.03155 24.746 9.01335 24.9498L8.09913 35.1437C8.05803 35.6017 8.26296 36.0363 8.64718 36.3064C9.03124 36.5764 9.52163 36.6308 9.9589 36.4514L19.6952 32.4599C19.89 32.38 20.1098 32.38 20.3047 32.4599L30.0409 36.4514C30.4781 36.6306 30.9684 36.5764 31.3527 36.3064C31.737 36.0363 31.9419 35.6017 31.9007 35.1438L30.9865 24.9498C30.9683 24.746 31.0362 24.5436 31.1748 24.389L38.1065 16.662C38.4178 16.3149 38.516 15.8468 38.3692 15.4096C38.2224 14.9726 37.8586 14.6497 37.396 14.546L27.0947 12.2373C26.8886 12.1911 26.7107 12.066 26.6016 11.8907L21.1493 3.12366C20.9045 2.72984 20.4749 2.49476 20 2.49476Z" fill="white"/>
</g>
<defs>
<clipPath id="clip0_207_1018">
<rect width="40" height="38.7014" fill="white" transform="translate(0 0.174805)"/>
</clipPath>
</defs>
</svg>
