<svg width="40" height="41" viewBox="0 0 40 41" fill="none" xmlns="http://www.w3.org/2000/svg">
<g clip-path="url(#clip0_207_984)">
<path d="M38.7501 33.2998H34.0626C34.6425 33.2992 35.1986 33.0685 35.6087 32.6584C36.0187 32.2483 36.2494 31.6923 36.2501 31.1123V30.4873C36.2494 29.9073 36.0187 29.3513 35.6087 28.9412C35.1986 28.5311 34.6425 28.3004 34.0626 28.2998H32.543L30.8415 20.467C30.7546 19.5352 30.324 18.6691 29.6335 18.0374C28.9431 17.4057 28.0422 17.0536 27.1063 17.0498H23.7501V16.4248C23.7499 16.3515 23.7369 16.2788 23.7118 16.21C24.316 15.5751 24.7296 14.7833 24.9055 13.9248H25.0001C25.4971 13.9241 25.9737 13.7264 26.3252 13.3749C26.6766 13.0234 26.8744 12.5469 26.8751 12.0498V7.9873C26.8732 6.24741 26.1811 4.57931 24.9509 3.34902C23.7206 2.11872 22.0525 1.42671 20.3126 1.4248H19.6876C17.9477 1.42671 16.2796 2.11872 15.0493 3.34902C13.819 4.57931 13.127 6.24741 13.1251 7.9873V12.0498C13.1257 12.5469 13.3235 13.0234 13.675 13.3749C14.0265 13.7264 14.503 13.9241 15.0001 13.9248H15.0946C15.2705 14.7833 15.6842 15.5751 16.2883 16.21C16.2632 16.2788 16.2502 16.3515 16.2501 16.4248V17.0498H12.8938C11.958 17.0536 11.0571 17.4057 10.3666 18.0374C9.67611 18.6691 9.24551 19.5352 9.15866 20.467L7.72897 27.0498H7.18756C7.01245 27.0497 6.83798 27.0709 6.66803 27.1131L4.93444 23.6451C4.86026 23.4968 4.73018 23.3839 4.57283 23.3315C4.41548 23.279 4.24373 23.2913 4.09537 23.3654C3.94702 23.4396 3.83421 23.5697 3.78175 23.727C3.7293 23.8844 3.74151 24.0561 3.81569 24.2045L5.58756 27.7475C5.20989 28.1516 4.99989 28.6842 5.00006 29.2373V31.1123C5.0007 31.6923 5.23138 32.2483 5.64147 32.6584C6.05157 33.0685 6.6076 33.2992 7.18756 33.2998H1.25006C1.0843 33.2998 0.92533 33.3657 0.808119 33.4829C0.690909 33.6001 0.625061 33.759 0.625061 33.9248V36.4248C0.625061 36.5906 0.690909 36.7495 0.808119 36.8667C0.92533 36.984 1.0843 37.0498 1.25006 37.0498H1.87506V38.2998C1.87506 38.4656 1.94091 38.6245 2.05812 38.7417C2.17533 38.859 2.3343 38.9248 2.50006 38.9248H37.5001C37.6658 38.9248 37.8248 38.859 37.942 38.7417C38.0592 38.6245 38.1251 38.4656 38.1251 38.2998V37.0498H38.7501C38.9158 37.0498 39.0748 36.984 39.192 36.8667C39.3092 36.7495 39.3751 36.5906 39.3751 36.4248V33.9248C39.3751 33.759 39.3092 33.6001 39.192 33.4829C39.0748 33.3657 38.9158 33.2998 38.7501 33.2998ZM32.1876 29.5498H34.0626C34.3111 29.55 34.5495 29.6488 34.7252 29.8246C34.901 30.0004 34.9999 30.2387 35.0001 30.4873V31.1123C34.9999 31.3609 34.901 31.5992 34.7252 31.775C34.5495 31.9508 34.3111 32.0496 34.0626 32.0498H32.1876C31.939 32.0496 31.7007 31.9508 31.5249 31.775C31.3491 31.5992 31.2503 31.3609 31.2501 31.1123V30.4873C31.2503 30.2387 31.3491 30.0004 31.5249 29.8246C31.7007 29.6488 31.939 29.55 32.1876 29.5498V29.5498ZM25.6251 12.0498C25.6248 12.2155 25.5589 12.3743 25.4418 12.4915C25.3246 12.6087 25.1658 12.6746 25.0001 12.6748V10.1748H25.6251V12.0498ZM15.0001 12.6748C14.8344 12.6746 14.6755 12.6087 14.5584 12.4915C14.4412 12.3743 14.3753 12.2155 14.3751 12.0498V10.1748H15.0001V12.6748ZM14.3751 8.9248V7.9873C14.3765 6.57879 14.9367 5.22839 15.9327 4.23242C16.9286 3.23645 18.2791 2.67627 19.6876 2.6748H20.3126C21.7211 2.67627 23.0715 3.23645 24.0674 4.23242C25.0634 5.22839 25.6236 6.57879 25.6251 7.9873V8.9248H25.0001V8.6123C25.0001 8.49277 24.9954 8.37324 24.9868 8.25684C24.9793 8.15908 24.9489 8.06445 24.8981 7.98061C24.8473 7.89676 24.7774 7.82605 24.6942 7.77418C24.611 7.72232 24.5168 7.69075 24.4192 7.68204C24.3215 7.67332 24.2232 7.68771 24.1321 7.72402C21.154 8.90996 15.6797 8.9248 15.6251 8.9248H14.3751ZM16.2501 12.9873V10.1654C17.6641 10.1303 21.161 9.96387 23.7501 9.17871V12.9873C23.749 13.8987 23.3865 14.7724 22.7421 15.4168C22.0976 16.0612 21.2239 16.4237 20.3126 16.4248H19.6876C18.7762 16.4237 17.9025 16.0612 17.2581 15.4168C16.6136 14.7724 16.2511 13.8987 16.2501 12.9873V12.9873ZM22.5001 17.1311V17.6748C22.5001 18.7084 21.379 19.5498 20.0001 19.5498C18.6212 19.5498 17.5001 18.7084 17.5001 17.6748V17.1311C18.1736 17.4889 18.9248 17.6756 19.6876 17.6748H20.3126C21.0753 17.6756 21.8265 17.4889 22.5001 17.1311V17.1311ZM10.3891 20.6928C10.3953 20.6647 10.3994 20.6363 10.4016 20.6076C10.4525 19.9807 10.7368 19.3957 11.1983 18.9683C11.6598 18.541 12.2648 18.3024 12.8938 18.2998H16.3258C16.6743 19.7248 18.1891 20.7998 20.0001 20.7998C21.811 20.7998 23.3258 19.7248 23.6743 18.2998H27.1063C27.7353 18.3024 28.3404 18.541 28.8019 18.9683C29.2634 19.3957 29.5477 19.9807 29.5985 20.6076C29.6007 20.6363 29.6049 20.6647 29.611 20.6928L31.3048 28.4865C30.917 28.658 30.5873 28.9383 30.3557 29.2934C30.1241 29.6486 30.0005 30.0633 30.0001 30.4873V31.1123C30.0007 31.6923 30.2314 32.2483 30.6415 32.6584C31.0516 33.0685 31.6076 33.2992 32.1876 33.2998H29.3751V23.6123C29.3744 23.0323 29.1437 22.4763 28.7337 22.0662C28.3236 21.6561 27.7675 21.4254 27.1876 21.4248H12.8126C12.2326 21.4254 11.6766 21.6561 11.2665 22.0662C10.8564 22.4763 10.6257 23.0323 10.6251 23.6123V33.2998H7.81256C8.39253 33.2992 8.94855 33.0685 9.35865 32.6584C9.76875 32.2483 9.99942 31.6923 10.0001 31.1123V29.2373C9.99995 28.8601 9.90227 28.4894 9.7165 28.1611C9.53073 27.8328 9.2632 27.5582 8.93991 27.3639L10.3891 20.6928ZM28.1251 23.6123V33.2998H11.8751V23.6123C11.8753 23.3637 11.9741 23.1254 12.1499 22.9496C12.3256 22.7738 12.564 22.675 12.8126 22.6748H27.1876C27.4361 22.675 27.6745 22.7738 27.8502 22.9496C28.026 23.1254 28.1249 23.3637 28.1251 23.6123ZM6.25006 31.1123V29.2373C6.25027 28.9887 6.34911 28.7504 6.52488 28.5746C6.70065 28.3988 6.93898 28.3 7.18756 28.2998H7.81256C8.06114 28.3 8.29948 28.3988 8.47525 28.5746C8.65102 28.7504 8.74985 28.9887 8.75006 29.2373V31.1123C8.74985 31.3609 8.65102 31.5992 8.47525 31.775C8.29948 31.9508 8.06114 32.0496 7.81256 32.0498H7.18756C6.93898 32.0496 6.70065 31.9508 6.52488 31.775C6.34911 31.5992 6.25027 31.3609 6.25006 31.1123V31.1123ZM36.8751 37.6748H3.12506V37.0498H36.8751V37.6748ZM38.1251 35.7998H1.87506V34.5498H38.1251V35.7998Z" fill="white"/>
<path d="M20.0001 26.4248C19.5056 26.4248 19.0223 26.5714 18.6111 26.8461C18.2 27.1208 17.8796 27.5113 17.6904 27.9681C17.5011 28.4249 17.4516 28.9276 17.5481 29.4125C17.6446 29.8975 17.8827 30.3429 18.2323 30.6926C18.5819 31.0422 19.0274 31.2803 19.5123 31.3768C19.9973 31.4732 20.5 31.4237 20.9568 31.2345C21.4136 31.0453 21.804 30.7249 22.0787 30.3137C22.3534 29.9026 22.5001 29.4193 22.5001 28.9248C22.4993 28.262 22.2357 27.6265 21.767 27.1579C21.2983 26.6892 20.6629 26.4255 20.0001 26.4248ZM20.0001 30.1748C19.7528 30.1748 19.5112 30.1015 19.3056 29.9641C19.1 29.8268 18.9398 29.6316 18.8452 29.4032C18.7506 29.1748 18.7258 28.9234 18.7741 28.6809C18.8223 28.4385 18.9414 28.2157 19.1162 28.0409C19.291 27.8661 19.5137 27.7471 19.7562 27.6988C19.9987 27.6506 20.25 27.6753 20.4784 27.77C20.7068 27.8646 20.9021 28.0248 21.0394 28.2303C21.1768 28.4359 21.2501 28.6776 21.2501 28.9248C21.2497 29.2562 21.1179 29.5739 20.8835 29.8083C20.6492 30.0426 20.3315 30.1744 20.0001 30.1748V30.1748Z" fill="white"/>
<path d="M18.1251 12.0498C18.4702 12.0498 18.7501 11.77 18.7501 11.4248C18.7501 11.0796 18.4702 10.7998 18.1251 10.7998C17.7799 10.7998 17.5001 11.0796 17.5001 11.4248C17.5001 11.77 17.7799 12.0498 18.1251 12.0498Z" fill="white"/>
<path d="M21.8751 12.0498C22.2202 12.0498 22.5001 11.77 22.5001 11.4248C22.5001 11.0796 22.2202 10.7998 21.8751 10.7998C21.5299 10.7998 21.2501 11.0796 21.2501 11.4248C21.2501 11.77 21.5299 12.0498 21.8751 12.0498Z" fill="white"/>
<path d="M19.3751 15.1748H20.6251C20.7908 15.1748 20.9498 15.109 21.067 14.9917C21.1842 14.8745 21.2501 14.7156 21.2501 14.5498C21.2501 14.384 21.1842 14.2251 21.067 14.1079C20.9498 13.9907 20.7908 13.9248 20.6251 13.9248H19.3751C19.2093 13.9248 19.0503 13.9907 18.9331 14.1079C18.8159 14.2251 18.7501 14.384 18.7501 14.5498C18.7501 14.7156 18.8159 14.8745 18.9331 14.9917C19.0503 15.109 19.2093 15.1748 19.3751 15.1748Z" fill="white"/>
</g>
<defs>
<clipPath id="clip0_207_984">
<rect width="40" height="40" fill="white" transform="translate(6.10352e-05 0.174805)"/>
</clipPath>
</defs>
</svg>
